# xmcd
#
# Track frame offsets: 
#        150
#        16042
#        31700
#        44802
#        70160
#        86400
#        102025
#        114717
#        129572
#        143652
#        157210
#        171500
#        186982
#
# Disc length: 2711 seconds
#
# Revision: 2
# Processed by: cddbd v1.5.1PL0 Copyright (c) Steve Scherf et al.
# Submitted via: ExactAudioCopy v0.95a5
#
DISCID=b00a950d
DTITLE=PRCA Rodeo Album - Cowboy Up
DYEAR=1998
DGENRE=Country
TTITLE0=Toby Keith - Should've Been A Cowboy
TTITLE1=Kathy Mattea - Clown In Your Rodeo
TTITLE2=Vince Gill - Ridin' The Rodeo
TTITLE3=Ian Tyson - Old Cheyenne
TTITLE4=Ryan Reynolds - Cowboy Up
TTITLE5=Willie Nelson - Mamma's Don't Let Your Babies Grow Up To Be Co
TTITLE5=wboys
TTITLE6=Jack Ingram - Big Time
TTITLE7=Chris LeDoux - Cadillac Cowboy
TTITLE8=Cindy Church - Trying To Rope The Wind
TTITLE9=Scoot McCoy - Cowboy Crazy
TTITLE10=Johnny Cash - Bull Rider
TTITLE11=Tracy Byrd - No Ordinary Man
TTITLE12=Emmylou Harris - The Sweetheart of the Rodeo
EXTD=
EXTT0=
EXTT1=
EXTT2=
EXTT3=
EXTT4=
EXTT5=
EXTT6=
EXTT7=
EXTT8=
EXTT9=
EXTT10=
EXTT11=
EXTT12=
PLAYORDER=
